# xmcd
#
# Track frame offsets: 
#        150
#        12399
#        23787
#        33246
#        45918
#        58064
#        69407
#        81959
#        93885
#        107137
#        119696
#        133192
#        145255
#        157806
#
# Disc length: 2258 seconds
#
# Revision: 1
# Processed by: cddbd v1.5.2PL0 Copyright (c) Steve Scherf et al.
# Submitted via: ExactAudioCopy v0.90b4
#
DISCID=b508d00e
DTITLE=Marvin Gaye - Playlist Plus [CD1]
DYEAR=2008
DGENRE=Soul
TTITLE0=Stubborn Kind of Fellow
TTITLE1=Hitch Hike
TTITLE2=Pride and Joy
TTITLE3=Can I Get a Witness
TTITLE4=You're a Wonderful One
TTITLE5=Once Upon a Time (w. Mary Wells)
TTITLE6=Try It Baby
TTITLE7=Baby Don't You Do It
TTITLE8=How Sweet It Is (to be loved by you)
TTITLE9=I'll Be Doggone
TTITLE10=Ain't That Peculiar
TTITLE11=One More Heartache
TTITLE12=Take This Heart of Mine
TTITLE13=Little Darling (I need you)
EXTD=
EXTT0=
EXTT1=
EXTT2=
EXTT3=
EXTT4=
EXTT5=
EXTT6=
EXTT7=
EXTT8=
EXTT9=
EXTT10=
EXTT11=
EXTT12=
EXTT13=
PLAYORDER=
